<?xml version="1.0" encoding="UTF-8"?>
<svg width="22px" height="17px" viewBox="0 0 22 17" version="1.1" xmlns="http://www.w3.org/2000/svg" xmlns:xlink="http://www.w3.org/1999/xlink">
    <!-- Generator: sketchtool 55 (78076) - https://sketchapp.com -->
    <title>6A06DB54-3A92-4067-ACF6-3FDA5C2DF415</title>
    <desc>Created with sketchtool.</desc>
    <defs>
        <path d="M7.61765714,0.0250363636 C7.59502857,0.0250363636 7.5724,0.0275090909 7.54945714,0.0284363636 L7.54945714,0.0284363636 C7.50608571,0.0290545455 7.4624,0.0309090909 7.41934286,0.0343090909 L7.41934286,0.0343090909 C7.39797143,0.0361636364 7.37722857,0.0389454545 7.35585714,0.0414181818 L7.35585714,0.0414181818 C7.30148571,0.0472909091 7.24742857,0.0553272727 7.194,0.0649090909 L7.194,0.0649090909 C7.1852,0.0667636364 7.1764,0.068 7.16791429,0.0698545455 L7.16791429,0.0698545455 C6.43374286,0.212345455 5.80988571,0.702872727 5.51445714,1.40049091 L5.51445714,1.40049091 L0.488714286,13.2739091 C0.00722857143,14.4104364 0.555342857,15.7197455 1.71128571,16.1932727 L1.71128571,16.1932727 C1.99005714,16.3073273 2.28328571,16.3651273 2.5828,16.3651273 L2.5828,16.3651273 C3.50302857,16.3651273 4.32645714,15.8254545 4.68002857,14.9899818 L4.68002857,14.9899818 L7.60382857,8.08272727 L10.5021714,14.9992545 C10.8538571,15.8393636 11.6782286,16.3818182 12.6016,16.3818182 L12.6016,16.3818182 C12.8989143,16.3818182 13.1896286,16.3249455 13.4658857,16.2130545 L13.4658857,16.2130545 C14.3380286,15.8594545 14.8672857,15.0298545 14.8710571,14.1554364 L14.8710571,14.1554364 L14.8710571,14.1375091 C14.8701143,13.8571636 14.8148,13.5724909 14.6997714,13.2980182 L14.6997714,13.2980182 L9.71708571,1.40729091 C9.3654,0.567490909 8.54134286,0.0250363636 7.61765714,0.0250363636 Z" id="path-1"></path>
        <polygon id="path-3" points="0 0.0337527273 9.56613363 0.0337527273 9.56613363 16.3729164 0 16.3729164"></polygon>
        <polygon id="path-5" points="0.000628571429 4.42030909 1.29737143 7.85585455 4.4968 3.77338182 2.90777143 0.0918"></polygon>
        <linearGradient x1="42.1462755%" y1="65.212729%" x2="52.5699258%" y2="74.36117%" id="linearGradient-7">
            <stop stop-color="#102233" offset="0%"></stop>
            <stop stop-color="#475563" offset="100%"></stop>
        </linearGradient>
    </defs>
    <g id="HISTORIAL-📃-✅" stroke="none" stroke-width="1" fill="none" fill-rule="evenodd" opacity="0.5">
        <g id="HISTORIAL1.0" transform="translate(-27.000000, -1052.000000)">
            <g id="menu/inicio" transform="translate(0.000000, 1039.000000)">
                <g id="inicio_inactivo" transform="translate(8.000000, 13.000000)">
                    <g transform="translate(19.000000, 0.000000)">
                        <g id="Group-3" transform="translate(6.914286, 0.284178)">
                            <mask id="mask-2" fill="white">
                                <use xlink:href="#path-1"></use>
                            </mask>
                            <g id="Clip-2"></g>
                            <path d="M7.61765714,0.0250363636 C7.59502857,0.0250363636 7.5724,0.0275090909 7.54945714,0.0284363636 L7.54945714,0.0284363636 C7.50608571,0.0290545455 7.4624,0.0309090909 7.41934286,0.0343090909 L7.41934286,0.0343090909 C7.39797143,0.0361636364 7.37722857,0.0389454545 7.35585714,0.0414181818 L7.35585714,0.0414181818 C7.30148571,0.0472909091 7.24742857,0.0553272727 7.194,0.0649090909 L7.194,0.0649090909 C7.1852,0.0667636364 7.1764,0.068 7.16791429,0.0698545455 L7.16791429,0.0698545455 C6.43374286,0.212345455 5.80988571,0.702872727 5.51445714,1.40049091 L5.51445714,1.40049091 L0.488714286,13.2739091 C0.00722857143,14.4104364 0.555342857,15.7197455 1.71128571,16.1932727 L1.71128571,16.1932727 C1.99005714,16.3073273 2.28328571,16.3651273 2.5828,16.3651273 L2.5828,16.3651273 C3.50302857,16.3651273 4.32645714,15.8254545 4.68002857,14.9899818 L4.68002857,14.9899818 L7.60382857,8.08272727 L10.5021714,14.9992545 C10.8538571,15.8393636 11.6782286,16.3818182 12.6016,16.3818182 L12.6016,16.3818182 C12.8989143,16.3818182 13.1896286,16.3249455 13.4658857,16.2130545 L13.4658857,16.2130545 C14.3380286,15.8594545 14.8672857,15.0298545 14.8710571,14.1554364 L14.8710571,14.1554364 L14.8710571,14.1375091 C14.8701143,13.8571636 14.8148,13.5724909 14.6997714,13.2980182 L14.6997714,13.2980182 L9.71708571,1.40729091 C9.3654,0.567490909 8.54134286,0.0250363636 7.61765714,0.0250363636 Z" id="Fill-1" fill="#475563" mask="url(#mask-2)"></path>
                        </g>
                        <g id="Group-6" transform="translate(0.000000, 0.284178)">
                            <mask id="mask-4" fill="white">
                                <use xlink:href="#path-3"></use>
                            </mask>
                            <g id="Clip-5"></g>
                            <path d="M0.174334286,13.2816982 L5.20039143,1.40858909 C5.55396286,0.573425455 6.37707714,0.0337527273 7.29667714,0.0337527273 C7.59682,0.0337527273 7.88973429,0.0915527273 8.16882,0.205607273 C9.32413429,0.679134545 9.87287714,1.98844364 9.39170571,3.12497091 L4.36564857,14.9977709 C4.01207714,15.8332436 3.18959143,16.3729164 2.26904857,16.3729164 C1.96953429,16.3729164 1.67599143,16.3151164 1.39722,16.2010618 C0.241905714,15.7278436 -0.306837143,14.4179164 0.174334286,13.2816982" id="Fill-4" fill="#475563" mask="url(#mask-4)"></path>
                        </g>
                        <g id="Group-9" transform="translate(13.514286, 1.211451)">
                            <mask id="mask-6" fill="white">
                                <use xlink:href="#path-5"></use>
                            </mask>
                            <g id="Clip-8"></g>
                            <polygon id="Fill-7" fill="url(#linearGradient-7)" mask="url(#mask-6)" points="0.000628571429 4.42030909 1.29737143 7.85585455 4.4968 3.77338182 2.90777143 0.0918"></polygon>
                        </g>
                        <path d="M7.40290571,13.5658764 L12.4286486,1.69276727 C12.7825343,0.857603636 13.60502,0.317930909 14.5252486,0.317930909 C14.8247629,0.317930909 15.1183057,0.375730909 15.3970771,0.489785455 C16.5527057,0.963312727 17.1011343,2.27262182 16.6202771,3.40914909 L11.59422,15.2819491 C11.2406486,16.1174218 10.4175343,16.6570945 9.49730571,16.6570945 C9.19779143,16.6570945 8.90424857,16.5992945 8.62579143,16.48524 C7.46984857,16.0120218 6.92173429,14.7020945 7.40290571,13.5658764" id="Fill-10" fill="#475563"></path>
                    </g>
                </g>
            </g>
        </g>
    </g>
</svg>