<?xml version="1.0" encoding="UTF-8"?>
<svg width="18px" height="17px" viewBox="0 0 18 17" version="1.1" xmlns="http://www.w3.org/2000/svg" xmlns:xlink="http://www.w3.org/1999/xlink">
    <!-- Generator: sketchtool 55 (78076) - https://sketchapp.com -->
    <title>4CACA341-39BE-4CBC-93FD-8E04D49FE5AC</title>
    <desc>Created with sketchtool.</desc>
    <g id="HISTORIAL-📃" stroke="none" stroke-width="1" fill="none" fill-rule="evenodd" opacity="0.5">
        <g id="HISTORIAL1.0" transform="translate(-177.000000, -1052.000000)" fill="#243142" fill-rule="nonzero">
            <g id="menu/inicio" transform="translate(-2.000000, 1039.000000)">
                <g id="perfil_inactivo" transform="translate(158.000000, 13.000000)">
                    <path d="M25.5,4.47368421 C25.5,2.00293665 27.5147186,0 30,0 C32.4852814,0 34.5,2.00293665 34.5,4.47368421 C34.5,6.03257093 33.6979771,7.40523062 32.4817687,8.20609394 C36.1980291,8.93744712 39,12.196051 39,16.1052632 C39,16.5994127 38.5970563,17 38.1,17 L21.9,17 C21.4029437,17 21,16.5994127 21,16.1052632 C21,12.196051 23.8019709,8.93744712 27.5182313,8.20609394 C26.3020229,7.40523062 25.5,6.03257093 25.5,4.47368421 Z"></path>
                </g>
            </g>
        </g>
    </g>
</svg>